<?xml version="1.0" encoding="UTF-8" standalone="no"?>
<svg
   xmlns:dc="http://purl.org/dc/elements/1.1/"
   xmlns:cc="http://creativecommons.org/ns#"
   xmlns:rdf="http://www.w3.org/1999/02/22-rdf-syntax-ns#"
   xmlns:svg="http://www.w3.org/2000/svg"
   xmlns="http://www.w3.org/2000/svg"
   viewBox="0 0 517.33331 234.66667"
   height="234.66667"
   width="517.33331"
   xml:space="preserve"
   id="svg2"
   version="1.1"><metadata
     id="metadata8"><rdf:RDF><cc:Work
         rdf:about=""><dc:format>image/svg+xml</dc:format><dc:type
           rdf:resource="http://purl.org/dc/dcmitype/StillImage" /></cc:Work></rdf:RDF></metadata><defs
     id="defs6" /><g
     transform="matrix(1.3333333,0,0,-1.3333333,0,234.66667)"
     id="g10"><g
       transform="scale(0.1)"
       id="g12"><path
         id="path14"
         style="fill:#47a8de;fill-opacity:1;fill-rule:evenodd;stroke:none"
         d="m 2515.74,1253.98 h 60.51 c -9.69,67.66 -29.69,130.67 -60,188.99 -30.35,58.36 -69.02,110 -116.02,155 -46.99,45.35 -100.5,82.03 -160.5,110 -59.65,28.01 -123.68,45.35 -192,52.03 v -60 c 60,-6.68 116.33,-22.34 168.99,-47.03 52.34,-25 99.33,-57.31 141.01,-96.99 41.68,-39.65 76.02,-85.16 103.01,-136.49 27.35,-51.01 45.67,-106.17 55,-165.51" /><path
         id="path16"
         style="fill:#f3ba17;fill-opacity:1;fill-rule:evenodd;stroke:none"
         d="m 1912.73,1696.99 v 60.51 c -65.66,-9.02 -126.99,-28.01 -183.98,-57.03 -57.03,-28.63 -108.01,-65.31 -153.01,-110 -44.69,-44.65 -81.52,-95.47 -110.51,-152.5 -28.98,-56.99 -48.16,-118.17 -57.5,-183.48 h 60.51 c 12.35,76.64 38.99,146.17 80,208.48 41.33,62.34 93.17,113.87 155.51,154.53 62.66,40.98 132.3,67.5 208.98,79.49" /><path
         id="path18"
         style="fill:#3f78ba;fill-opacity:1;fill-rule:evenodd;stroke:none"
         d="m 1464.22,1118.98 h -60 c 6.68,-68.67 24.02,-133.16 52.03,-193.511 27.97,-60 64.65,-113.629 110,-160.981 45.31,-47.34 97.3,-86.168 155.98,-116.519 58.67,-30.309 121.99,-50.309 190,-60 v 60.511 c -59.65,9.329 -115.16,27.649 -166.49,55 -51.68,26.989 -97.34,61.52 -136.99,103.508 -40,41.641 -72.5,88.992 -97.5,141.992 -25,52.66 -40.66,109.34 -47.03,170" /><path
         id="path20"
         style="fill:#2b3d4f;fill-opacity:1;fill-rule:evenodd;stroke:none"
         d="m 2047.73,645.469 v -60 c 70.67,7.031 136.84,25.351 198.52,55 61.33,29.691 115.82,68.363 163.48,116.011 47.65,47.661 86.17,102.348 115.5,163.989 29.34,61.371 47.35,127.501 53.99,198.511 h -60 c -6.64,-62.65 -23.17,-121.011 -49.49,-175 -25.98,-54.332 -60.16,-102.652 -102.5,-145 -42,-42.339 -90.16,-76.832 -144.5,-103.511 -54.33,-26.328 -112.65,-42.969 -175,-50" /><path
         id="path22"
         style="fill:#2b3d4f;fill-opacity:1;fill-rule:evenodd;stroke:none"
         d="m 2069.06,1108.67 c 0,24.18 -8.08,44.85 -24.33,62.03 -16.25,17.19 -41.72,25.78 -76.49,25.78 -8.28,0 -21.87,-0.78 -40.78,-2.26 -1.48,-4.53 -2.26,-10.78 -2.26,-18.71 v -82.7 c 0,-28.71 3.04,-45.51 9.06,-50.39 5.66,-5.31 15.86,-7.93 30.58,-7.93 9.46,0 18.79,0.74 28.05,2.27 9.26,1.48 20.31,4.41 33.13,8.75 12.85,4.33 23.24,11.91 31.17,22.65 7.93,10.79 11.87,24.26 11.87,40.51 z M 1875.94,1090 v 214.1 c 0,22.27 -1.33,38.52 -3.99,48.71 -1.13,3.01 -6.68,5.82 -16.68,8.48 -10,2.66 -17.46,3.98 -22.38,3.98 -1.52,0 -2.27,2.27 -2.27,6.8 0,4.88 0.75,8.09 2.27,9.61 19.65,-0.74 42.11,-1.13 67.38,-1.13 19.26,0 35.04,0.07 47.31,0.27 12.26,0.2 23.12,0.31 32.58,0.31 9.8,0 19.8,-0.86 30,-2.58 10.19,-1.67 20.7,-4.8 31.44,-9.33 10.78,-4.53 20.31,-10.2 28.6,-16.99 8.32,-6.8 15.11,-15.78 20.39,-26.92 5.31,-11.13 7.93,-23.47 7.93,-37.07 0,-13.59 -4.34,-26.25 -13.01,-37.97 -8.67,-11.72 -16.72,-19.8 -24.06,-24.33 -7.39,-4.53 -13.72,-7.78 -18.99,-9.65 -3.01,-1.13 -3.98,-2.27 -2.85,-3.4 14.73,-2.66 32.3,-13.32 52.69,-31.99 20.4,-18.71 30.59,-40.7 30.59,-65.98 0,-32.5 -13.12,-58.28 -39.37,-77.34 -26.25,-19.06 -61.06,-28.6 -104.5,-28.6 h -77.61 l -68.52,-1.68 c -1.13,1.14 -1.72,4.15 -1.72,9.07 0,4.88 0.59,7.34 1.72,7.34 4.92,0 12.19,1.33 21.8,3.99 9.65,2.61 15.39,5.66 17.26,9.06 2.66,4.53 3.99,22.26 3.99,53.24 z m 118.36,131.95 c 15.5,1.53 28.43,6.88 38.82,16.14 10.4,9.25 15.55,21.64 15.55,37.11 0,26.05 -6.48,46.36 -19.53,60.89 -13.01,14.53 -32.38,21.8 -58.05,21.8 -17.38,0 -30.78,-1.33 -40.23,-3.94 -2.27,-0.4 -3.4,-2.11 -3.4,-5.12 l -2.26,-57.19 v -67.42 c 0,-2.66 12.46,-3.95 37.38,-3.95 12.11,0 22.65,0.55 31.72,1.68 z" /><path
         id="path24"
         style="fill:#2c3e51;fill-opacity:1;fill-rule:nonzero;stroke:none"
         d="m 172.73,166.172 c 0,17.5 -5.89,32.418 -17.652,44.848 -11.797,12.5 -30.277,18.75 -55.4686,18.75 -5.9375,0 -15.7813,-0.59 -29.5313,-1.719 -1.0586,-3.25 -1.5586,-7.742 -1.5586,-13.442 V 154.77 c 0,-20.86 2.1797,-33.051 6.5586,-36.571 4.0625,-3.859 11.4414,-5.777 22.1914,-5.777 6.7505,0 13.4685,0.508 20.1525,1.558 6.758,1.141 14.769,3.29 24.058,6.411 9.258,3.199 16.758,8.668 22.5,16.41 5.821,7.808 8.75,17.578 8.75,29.371 z M 32.8906,152.578 V 307.73 c 0,16.141 -1.0117,27.86 -2.9687,35.161 -0.8633,2.187 -4.9219,4.218 -12.1914,6.089 -7.1797,1.961 -12.57034,2.969 -16.08987,2.969 -1.050786,0 -1.562505,1.641 -1.562505,5 0,3.52 0.511719,5.821 1.562505,6.879 14.25777,-0.547 30.50777,-0.777 48.74997,-0.777 13.9492,0 25.3477,0.039 34.2188,0.148 8.9414,0.199 16.8706,0.321 23.7496,0.321 7.071,0 14.301,-0.629 21.719,-1.879 7.383,-1.25 14.922,-3.551 22.652,-6.871 7.821,-3.25 14.731,-7.309 20.79,-12.192 6.011,-4.918 10.929,-11.406 14.679,-19.527 3.832,-8.051 5.781,-17 5.781,-26.879 0,-9.801 -3.199,-18.981 -9.531,-27.5 -6.25,-8.442 -12.027,-14.332 -17.34,-17.652 -5.308,-3.25 -9.918,-5.551 -13.75,-6.879 -2.187,-0.86 -2.89,-1.68 -2.031,-2.5 10.703,-1.871 23.442,-9.61 38.121,-23.121 14.77,-13.559 22.192,-29.5 22.192,-47.821 0,-23.551 -9.532,-42.258 -28.59,-56.09 -18.992,-13.75 -44.18,-20.6285 -75.629,-20.6285 H 51.3281 l -49.68747,-1.25 c -0.85938,0.8593 -1.250005,3.0078 -1.250005,6.5703 0,3.5082 0.390625,5.3082 1.250005,5.3082 3.51953,0 8.78907,0.942 15.78127,2.813 6.957,1.957 11.1289,4.219 12.5,6.719 1.957,3.199 2.9687,16.019 2.9687,38.437 z m 85.6294,95.621 c 11.25,1.141 20.621,5.039 28.121,11.723 7.5,6.637 11.25,15.629 11.25,26.879 0,18.82 -4.77,33.508 -14.219,44.058 -9.371,10.512 -23.363,15.782 -41.871,15.782 -12.6213,0 -22.3518,-0.942 -29.2229,-2.813 -1.6797,-0.308 -2.5,-1.558 -2.5,-3.75 l -1.5586,-41.406 v -48.75 c 0,-1.992 8.9805,-2.973 27.0313,-2.973 8.7502,0 16.3982,0.391 22.9692,1.25 z M 263.672,141.641 v 177.5 c 0,9.257 -0.781,18.007 -2.344,26.25 -1.367,4.379 -8.359,6.558 -20.937,6.558 h -3.75 c -1.68,0 -2.5,1.492 -2.5,4.531 0,4.379 0.82,6.571 2.5,6.571 8.199,0.82 15.82,1.91 22.808,3.277 6.961,1.332 12.43,2.692 16.41,4.063 3.942,1.328 7.262,2.66 10,3.91 2.692,1.25 4.762,2.258 6.25,3.121 l 1.563,1.25 h 0.777 c 1.141,0 2.231,-0.781 3.281,-2.344 1.141,-1.488 1.801,-2.887 2.04,-4.219 -2.93,-8.75 -4.379,-20.699 -4.379,-35.781 V 149.301 c 0,-15.86 1.089,-27.973 3.281,-36.41 0.508,-1.993 4.058,-3.871 10.629,-5.621 6.558,-1.801 11.168,-2.661 13.898,-2.661 0.821,0 1.332,-1.679 1.571,-4.9996 0.308,-3.2383 0.191,-5.5508 -0.321,-6.8789 -27.418,1.3281 -42.027,2.039 -43.898,2.039 -1.68,0 -16.571,-0.7109 -44.692,-2.039 -1.168,1.1797 -1.718,3.3593 -1.718,6.7187 0,3.4418 0.55,5.1598 1.718,5.1598 3.2,0 8.051,0.86 14.532,2.661 6.449,1.75 9.918,3.628 10.468,5.621 1.871,7.89 2.813,17.5 2.813,28.75 z" /><path
         id="path26"
         style="fill:#2c3e51;fill-opacity:1;fill-rule:nonzero;stroke:none"
         d="m 388.75,120.391 c 4.691,-3.981 10.699,-5.942 18.129,-5.942 7.383,0 14.449,2.231 21.242,6.723 6.879,4.566 10.32,9.219 10.32,13.906 v 42.192 c -2.191,-1.18 -7.582,-3.09 -16.101,-5.79 -8.43,-2.73 -15.07,-5.109 -19.84,-7.179 -4.691,-2 -9.34,-5.391 -13.91,-10.16 -4.488,-4.801 -6.711,-10.391 -6.711,-16.719 0,-7.422 2.262,-13.082 6.871,-17.031 z m 38.59,152.5 c 15.082,0 25.941,-3.672 32.5,-10.942 6.57,-7.301 9.851,-18.98 9.851,-35 v -94.84 c 0,-5.738 1.438,-10.55 4.368,-14.379 3.011,-3.75 7.113,-5.621 12.351,-5.621 3.82,0 8.629,1.871 14.371,5.621 1.129,0 1.719,-1.089 1.719,-3.281 0,-3.551 -0.699,-6.398 -2.031,-8.59 -11.25,-9.609 -20.86,-14.3785 -28.75,-14.3785 -6.367,0 -12.418,2.5781 -18.129,7.8203 -5.738,5.1872 -9.68,10.6602 -11.871,16.3982 -0.239,0 -1.25,-0.898 -3.129,-2.648 -1.789,-1.801 -4.18,-3.871 -7.18,-6.25 -2.93,-2.313 -6.371,-4.692 -10.32,-7.1916 -3.981,-2.418 -8.668,-4.3789 -14.059,-5.9375 -5.312,-1.6406 -10.703,-2.5 -16.09,-2.5 -12.621,0 -23.05,3.3164 -31.25,10.0001 -8.242,6.637 -12.351,16.719 -12.351,30.156 0,6.012 1.488,11.723 4.539,17.031 3,5.313 6.562,9.692 10.621,13.121 4.141,3.442 9.77,6.918 16.879,10.469 7.07,3.52 13.16,6.172 18.281,7.973 5.07,1.758 11.719,3.988 19.84,6.719 8.199,2.808 13.98,4.879 17.34,6.25 2.39,0.82 3.601,2.847 3.601,6.089 v 30.79 c 0,8.75 -2.781,15.5 -8.281,20.308 -5.43,4.762 -11.961,7.192 -19.539,7.192 -8.242,0 -15.109,-2.821 -20.621,-8.442 -5.43,-5.629 -8.121,-12.93 -8.121,-21.879 0,-9.609 -5.629,-14.371 -16.879,-14.371 -7.621,0 -12.93,2.582 -15.941,7.813 0,11.64 8.601,23.32 25.781,35 17.269,11.64 34.769,17.5 52.5,17.5 z" /><path
         id="path28"
         style="fill:#2c3e51;fill-opacity:1;fill-rule:nonzero;stroke:none"
         d="m 664.059,244.922 c -4.68,-2.731 -13.59,-9.223 -26.719,-19.531 -13.121,-10.231 -24.488,-20.27 -34.059,-30.161 8.008,-8.429 17.739,-19.179 29.219,-32.179 11.449,-12.93 20.859,-23.442 28.281,-31.571 7.379,-8.039 12.418,-13.281 15.16,-15.781 4.68,-3.859 10.539,-6.828 17.649,-8.898 7.07,-2 12.109,-2.973 15.16,-2.973 1.129,0 1.719,-2.187 1.719,-6.5585 0,-2.5 -0.16,-3.9882 -0.469,-4.539 -27.422,1.3281 -42.301,2.039 -44.691,2.039 -0.539,0 -14.758,-0.7109 -42.649,-2.039 -1.18,1.1797 -1.719,3.289 -1.719,6.4101 0,3.1294 0.539,4.6874 1.719,4.6874 2.692,0 5.82,0.512 9.371,1.563 3.52,1.129 5.309,2.379 5.309,3.75 0,0.507 -0.11,0.937 -0.309,1.25 l -60,64.839 -4.84,-1.25 v -24.679 c 0.508,-18.051 1.598,-30.16 3.278,-36.41 0.511,-1.993 4.062,-3.871 10.621,-5.621 6.57,-1.801 11.18,-2.661 13.91,-2.661 0.82,0 1.41,-1.679 1.719,-4.9996 0.312,-3.2383 0.16,-5.5508 -0.469,-6.8789 -27.301,1.3281 -41.949,2.039 -43.91,2.039 -1.559,0 -16.481,-0.7109 -44.68,-2.039 -1.058,1.1797 -1.57,3.3593 -1.57,6.7187 0,3.4418 0.512,5.1598 1.57,5.1598 3.32,0 8.16,0.86 14.531,2.661 6.438,1.75 9.918,3.628 10.469,5.621 1.949,7.89 2.961,17.5 2.961,28.75 v 177.5 c 0,9.257 -0.851,18.007 -2.5,26.25 -1.359,4.379 -8.351,6.558 -20.93,6.558 h -3.601 c -1.68,0 -2.5,1.492 -2.5,4.531 0,4.379 0.82,6.571 2.5,6.571 8.129,0.82 15.672,1.91 22.66,3.277 6.949,1.332 12.422,2.692 16.41,4.063 3.942,1.328 7.262,2.66 10,3.91 2.809,1.25 4.719,2.258 5.781,3.121 l 2.028,1.25 h 0.941 c 1.012,0 2.07,-0.781 3.121,-2.344 1.129,-1.488 1.879,-2.887 2.188,-4.219 -3.047,-8.75 -4.528,-20.699 -4.528,-35.781 V 192.891 c 5.7,1.328 9.137,2.539 10.309,3.589 5.941,5.2 12.191,10.508 18.75,15.942 6.559,5.508 11.449,9.609 14.691,12.348 3.321,2.808 6.481,5.539 9.528,8.281 3.011,2.687 5.043,4.879 6.09,6.558 1.14,1.641 1.722,3.282 1.722,4.84 0,3.321 -3.051,5.242 -9.062,5.781 -5.938,0.508 -9.059,1.098 -9.379,1.719 -1.871,5.391 -1.719,8.52 0.469,9.379 h 32.351 c 4.059,0 8.32,0.082 12.809,0.313 4.57,0.308 9.922,0.629 16.09,0.937 6.14,0.313 11.562,0.543 16.25,0.781 1.019,-0.55 1.601,-1.8 1.722,-3.75 0.199,-1.879 0,-3.668 -0.621,-5.308 -0.551,-1.571 -1.058,-2.352 -1.57,-2.352 -3.551,0 -8.59,-0.859 -15.149,-2.5 -6.57,-1.679 -10.941,-3.199 -13.132,-4.527 z" /><path
         id="path30"
         style="fill:#2c3e51;fill-opacity:1;fill-rule:nonzero;stroke:none"
         d="m 801.09,257.578 c -14.289,0 -25.149,-6.098 -32.649,-18.277 -7.5,-12.11 -11.25,-22.11 -11.25,-30 0,-2 0.821,-2.973 2.5,-2.973 h 79.84 c 1.449,0 2.188,1.402 2.188,4.223 0,8.75 -3.707,18.75 -11.098,30 -7.422,11.328 -17.262,17.027 -29.531,17.027 z m 4.07,15.313 c 12.57,0 23.629,-2.422 33.121,-7.192 9.571,-4.801 16.918,-11.008 22.028,-18.59 5.082,-7.5 8.793,-15.16 11.101,-22.968 2.262,-7.731 3.43,-15.43 3.43,-23.121 0,-5.43 -0.86,-8.75 -2.5,-10 -1.559,-1.25 -4.68,-1.879 -9.371,-1.879 H 759.691 c -2.191,0 -3.281,-0.7 -3.281,-2.032 0,-17.187 5.149,-33.089 15.469,-47.66 10.391,-14.488 25.461,-21.719 45.152,-21.719 5.699,0 11.168,0.508 16.41,1.571 5.188,1.129 9.61,2.418 13.278,3.898 3.75,1.571 6.91,3.051 9.531,4.531 2.578,1.571 4.84,3.008 6.719,4.379 l 2.812,2.032 c 1.641,0 2.5,-1.801 2.5,-5.313 0,-2.187 -0.859,-4.648 -2.5,-7.348 -5.429,-7.73 -13.511,-14.64 -24.222,-20.781 -10.618,-6.1677 -22.258,-9.2185 -34.84,-9.2185 -22.617,0 -42.11,8.5195 -58.438,25.6285 -16.25,17.071 -24.371,37.969 -24.371,62.661 0,28.628 7.692,51.281 23.121,67.96 15.508,16.758 34.879,25.161 58.129,25.161 z" /><path
         id="path32"
         style="fill:#2c3e51;fill-opacity:1;fill-rule:nonzero;stroke:none"
         d="m 1027.11,308.52 c 0,16.949 -1.02,29.14 -2.97,36.558 -0.86,2.192 -4.76,4.141 -11.72,5.942 -6.99,1.75 -12.26,2.652 -15.779,2.652 -1.051,0 -1.563,1.758 -1.563,5.308 0,3.211 0.512,5.399 1.563,6.571 31.449,-1.371 47.849,-2.031 49.219,-2.031 4.37,0 20.23,0.66 47.66,2.031 0.5,-1.68 0.78,-3.75 0.78,-6.25 0,-3.75 -0.55,-5.629 -1.57,-5.629 -2.81,0 -7.77,-1.012 -14.84,-2.973 -7.11,-1.871 -10.9,-3.75 -11.41,-5.621 -2.5,-9.609 -3.75,-22.348 -3.75,-38.277 V 151.02 c 0,-15.86 1.25,-28.559 3.75,-38.129 0.51,-1.993 4.3,-3.871 11.41,-5.621 7.07,-1.801 12.03,-2.661 14.84,-2.661 1.02,0 1.57,-2.031 1.57,-6.0895 0,-2.1914 -0.28,-4.1406 -0.78,-5.789 -27.43,1.3281 -43.29,2.039 -47.66,2.039 -1.37,0 -17.77,-0.7109 -49.219,-2.039 -1.051,1.1797 -1.563,3.2109 -1.563,6.25 0,3.7495 0.512,5.6285 1.563,5.6285 3.519,0 8.789,0.821 15.779,2.5 6.96,1.641 10.86,3.59 11.72,5.782 1.95,7.379 2.97,19.531 2.97,36.41 z" /><path
         id="path34"
         style="fill:#2c3e51;fill-opacity:1;fill-rule:nonzero;stroke:none"
         d="m 1241.13,273.672 c 10.94,0 20,-2.973 27.19,-8.902 7.27,-5.86 12.27,-12.622 15,-20.321 20.51,19.461 41.72,29.223 63.59,29.223 34.46,0 51.72,-26.25 51.72,-78.75 v -45.621 c 0,-15.86 1.1,-27.973 3.28,-36.41 0.51,-1.993 4.07,-3.871 10.63,-5.621 6.56,-1.801 11.25,-2.661 14.06,-2.661 0.7,0 1.25,-1.679 1.56,-4.9996 0.32,-3.2383 0.16,-5.5508 -0.46,-6.8789 -27.31,1.3281 -41.88,2.039 -43.75,2.039 -1.68,0 -16.65,-0.7109 -44.85,-2.039 -1.05,1.1797 -1.56,3.3593 -1.56,6.7187 0,3.4418 0.51,5.1598 1.56,5.1598 3.32,0 8.17,0.86 14.53,2.661 6.45,1.75 10,3.628 10.63,5.621 1.87,7.89 2.81,16.64 2.81,26.25 v 46.25 c 0,42.187 -13.83,63.281 -41.41,63.281 -10.11,0 -18.86,-2.973 -26.25,-8.902 -7.42,-5.86 -11.09,-10.711 -11.09,-14.54 l 0.47,-1.558 c 0,-1.172 0,-1.871 0,-2.192 1.01,-6.789 1.56,-16.64 1.56,-29.531 v -46.25 c 0,-13.429 1.1,-24.371 3.28,-32.808 0.51,-1.993 4.07,-3.871 10.63,-5.621 6.56,-1.801 11.25,-2.661 14.06,-2.661 0.7,0 1.25,-1.679 1.56,-4.9996 0.32,-3.2383 0.16,-5.5508 -0.47,-6.8789 -27.3,1.3281 -41.87,2.039 -43.75,2.039 -1.68,0 -16.64,-0.7109 -44.84,-2.039 -1.05,1.1797 -1.56,3.3593 -1.56,6.7187 0,3.4418 0.51,5.1598 1.56,5.1598 3.32,0 8.16,0.86 14.53,2.661 6.45,1.75 10,3.628 10.63,5.621 1.87,7.89 2.81,17.5 2.81,28.75 v 41.718 c 0,43.52 -13.13,65.313 -39.38,65.313 -8.24,0 -16.52,-3.082 -24.84,-9.223 -8.36,-6.168 -12.5,-12.148 -12.5,-17.969 v -72.179 c 0,-15.86 1.09,-27.973 3.28,-36.41 0.51,-1.993 4.06,-3.871 10.63,-5.621 6.56,-1.801 11.25,-2.661 14.06,-2.661 0.7,0 1.25,-1.679 1.56,-4.9996 0.31,-3.2383 0.16,-5.5508 -0.47,-6.8789 -27.3,1.3281 -41.87,2.039 -43.75,2.039 -1.68,0 -16.64,-0.7109 -44.84,-2.039 -1.06,1.1797 -1.56,3.3593 -1.56,6.7187 0,3.4418 0.5,5.1598 1.56,5.1598 3.32,0 8.16,0.86 14.53,2.661 6.45,1.75 10,3.628 10.63,5.621 1.87,7.89 2.81,17.5 2.81,28.75 v 77.5 c 0,10.629 -1.96,17.968 -5.78,22.031 -2.74,3.316 -6.06,5.629 -10,6.879 -3.99,1.25 -7.27,1.871 -9.85,1.871 -2.61,0 -3.9,0.238 -3.9,0.777 0,6.571 0.82,9.922 2.5,10.16 28.94,4.371 47.81,7.969 56.56,10.782 0.31,0 0.7,0.039 1.25,0.16 0.51,0.078 0.78,0.148 0.78,0.148 1.13,0 1.8,-1.168 2.03,-3.429 0.31,-2.309 0.31,-4.032 0,-5.161 -1.05,-7.621 -1.56,-13.089 -1.56,-16.41 0,-1.051 0.23,-1.558 0.78,-1.558 0.31,0 0.7,0.23 1.25,0.781 6.25,6.558 14.77,12.738 25.63,18.598 10.82,5.929 21.13,8.902 30.93,8.902 z" /><path
         id="path36"
         style="fill:#2c3e51;fill-opacity:1;fill-rule:nonzero;stroke:none"
         d="m 1569.26,273.672 c 10.94,0 20,-2.973 27.19,-8.902 7.26,-5.86 12.26,-12.622 15,-20.321 20.5,19.461 41.71,29.223 63.59,29.223 34.45,0 51.72,-26.25 51.72,-78.75 v -45.621 c 0,-15.86 1.09,-27.973 3.28,-36.41 0.51,-1.993 4.06,-3.871 10.62,-5.621 6.57,-1.801 11.25,-2.661 14.07,-2.661 0.7,0 1.25,-1.679 1.56,-4.9996 0.31,-3.2383 0.16,-5.5508 -0.47,-6.8789 -27.3,1.3281 -41.87,2.039 -43.75,2.039 -1.68,0 -16.64,-0.7109 -44.84,-2.039 -1.06,1.1797 -1.57,3.3593 -1.57,6.7187 0,3.4418 0.51,5.1598 1.57,5.1598 3.32,0 8.16,0.86 14.53,2.661 6.44,1.75 10,3.628 10.62,5.621 1.88,7.89 2.82,16.64 2.82,26.25 v 46.25 c 0,42.187 -13.83,63.281 -41.41,63.281 -10.12,0 -18.87,-2.973 -26.25,-8.902 -7.42,-5.86 -11.09,-10.711 -11.09,-14.54 l 0.46,-1.558 c 0,-1.172 0,-1.871 0,-2.192 1.02,-6.789 1.57,-16.64 1.57,-29.531 v -46.25 c 0,-13.429 1.09,-24.371 3.28,-32.808 0.51,-1.993 4.06,-3.871 10.62,-5.621 6.57,-1.801 11.25,-2.661 14.07,-2.661 0.7,0 1.25,-1.679 1.56,-4.9996 0.31,-3.2383 0.15,-5.5508 -0.47,-6.8789 -27.31,1.3281 -41.88,2.039 -43.75,2.039 -1.68,0 -16.64,-0.7109 -44.84,-2.039 -1.06,1.1797 -1.57,3.3593 -1.57,6.7187 0,3.4418 0.51,5.1598 1.57,5.1598 3.32,0 8.16,0.86 14.53,2.661 6.44,1.75 10,3.628 10.62,5.621 1.88,7.89 2.81,17.5 2.81,28.75 v 41.718 c 0,43.52 -13.12,65.313 -39.37,65.313 -8.24,0 -16.52,-3.082 -24.84,-9.223 -8.36,-6.168 -12.5,-12.148 -12.5,-17.969 v -72.179 c 0,-15.86 1.09,-27.973 3.28,-36.41 0.5,-1.993 4.06,-3.871 10.62,-5.621 6.56,-1.801 11.25,-2.661 14.06,-2.661 0.71,0 1.25,-1.679 1.57,-4.9996 0.31,-3.2383 0.15,-5.5508 -0.47,-6.8789 -27.31,1.3281 -41.88,2.039 -43.75,2.039 -1.68,0 -16.64,-0.7109 -44.85,-2.039 -1.05,1.1797 -1.56,3.3593 -1.56,6.7187 0,3.4418 0.51,5.1598 1.56,5.1598 3.32,0 8.17,0.86 14.54,2.661 6.44,1.75 10,3.628 10.62,5.621 1.88,7.89 2.81,17.5 2.81,28.75 v 77.5 c 0,10.629 -1.95,17.968 -5.78,22.031 -2.73,3.316 -6.05,5.629 -10,6.879 -3.98,1.25 -7.26,1.871 -9.84,1.871 -2.62,0 -3.91,0.238 -3.91,0.777 0,6.571 0.82,9.922 2.5,10.16 28.95,4.371 47.81,7.969 56.56,10.782 0.32,0 0.71,0.039 1.25,0.16 0.51,0.078 0.79,0.148 0.79,0.148 1.13,0 1.79,-1.168 2.03,-3.429 0.31,-2.309 0.31,-4.032 0,-5.161 -1.06,-7.621 -1.57,-13.089 -1.57,-16.41 0,-1.051 0.24,-1.558 0.79,-1.558 0.31,0 0.7,0.23 1.25,0.781 6.25,6.558 14.76,12.738 25.62,18.598 10.82,5.929 21.13,8.902 30.94,8.902 z" /><path
         id="path38"
         style="fill:#2c3e51;fill-opacity:1;fill-rule:nonzero;stroke:none"
         d="m 1806.91,322.578 c -3.98,4.063 -5.93,8.942 -5.93,14.692 0,5.699 1.95,10.539 5.93,14.531 3.95,3.937 8.79,5.929 14.54,5.929 5.82,0 10.7,-1.992 14.68,-5.929 3.95,-3.992 5.94,-8.832 5.94,-14.531 0,-5.75 -1.99,-10.629 -5.94,-14.692 -3.98,-3.988 -8.86,-5.937 -14.68,-5.937 -5.75,0 -10.59,1.949 -14.54,5.937 z m 33.44,-173.277 c 0,-15.86 1.1,-27.973 3.28,-36.41 0.51,-1.993 4.07,-3.871 10.63,-5.621 6.56,-1.801 11.25,-2.661 14.06,-2.661 0.82,0 1.33,-1.679 1.56,-4.9996 0.32,-3.2383 0.2,-5.5508 -0.31,-6.8789 -27.42,1.3281 -42.11,2.039 -44.06,2.039 -1.88,0 -16.72,-0.7109 -44.53,-2.039 -1.18,1.1797 -1.72,3.3593 -1.72,6.7187 0,3.4418 0.54,5.1598 1.72,5.1598 3.2,0 8,0.86 14.37,2.661 6.45,1.75 10,3.628 10.63,5.621 1.87,7.89 2.81,17.5 2.81,28.75 v 77.5 c 0,10.629 -1.95,17.968 -5.78,22.031 -2.74,3.316 -6.06,5.629 -10,6.879 -3.99,1.25 -7.27,1.871 -9.85,1.871 -2.61,0 -3.9,0.238 -3.9,0.777 0,6.571 0.82,9.922 2.5,10.16 28.94,4.371 47.81,7.969 56.56,10.782 l 0.78,0.308 c 0.63,0 1.02,0 1.25,0 1.13,0 1.8,-1.168 2.03,-3.429 0.32,-2.309 0.32,-4.032 0,-5.161 -1.36,-10.937 -2.03,-20.781 -2.03,-29.531 z" /><path
         id="path40"
         style="fill:#2c3e51;fill-opacity:1;fill-rule:nonzero;stroke:none"
         d="m 2032.34,59.1406 c 0,11.4805 -5.62,19.1797 -16.87,23.1289 -11.17,3.9805 -33.44,5.9297 -66.88,5.9297 -0.54,0 -1.32,-0.2304 -2.34,-0.7773 -0.31,-0.3125 -1.56,-0.9414 -3.75,-1.8711 -2.19,-0.9414 -3.55,-1.4922 -4.06,-1.7227 -0.55,-0.3086 -1.8,-1.0976 -3.75,-2.3476 -1.88,-1.25 -3.21,-2.0703 -3.91,-2.5 -0.62,-0.3907 -1.8,-1.1719 -3.44,-2.3399 -1.68,-1.25 -2.77,-2.3398 -3.28,-3.2812 -0.54,-1.0196 -1.36,-2.2305 -2.5,-3.5899 -1.05,-1.3281 -1.79,-2.6992 -2.18,-4.0703 -0.43,-1.3203 -0.86,-2.8906 -1.26,-4.6797 -0.42,-1.7578 -0.62,-3.6406 -0.62,-5.6289 0,-11.7617 6.09,-21.25 18.28,-28.4414 12.19,-7.2578 25.63,-10.9297 40.31,-10.9297 16.45,0 29.93,4.3711 40.47,13.1211 10.51,8.75 15.78,18.75 15.78,30 z m -105,156.2504 c 0,-12.621 3.91,-23.282 11.72,-32.032 7.82,-8.75 16.88,-13.129 27.19,-13.129 10.7,0 19.57,4.11 26.56,12.348 6.96,8.203 10.47,18.043 10.47,29.531 0,12.582 -3.9,23.282 -11.72,32.032 -7.81,8.75 -16.95,13.129 -27.34,13.129 -10.63,0 -19.45,-4.149 -26.41,-12.348 -6.99,-8.242 -10.47,-18.082 -10.47,-29.531 z m 38.6,55.781 c 10.08,0 21.72,-1.793 34.84,-5.313 13.13,-3.558 23.91,-5.308 32.34,-5.308 h 23.76 c 1.64,-0.551 2.5,-3.992 2.5,-10.321 0,-3.859 -0.86,-5.781 -2.5,-5.781 h -29.07 c -1.05,0 -1.56,-0.39 -1.56,-1.09 l 4.06,-9.839 c 3.01,-6.571 4.53,-13.129 4.53,-19.692 0,-14.808 -6.56,-28.09 -19.68,-39.848 -13.13,-11.789 -29.3,-17.652 -48.44,-17.652 -8.75,0 -16.41,0.551 -22.97,1.723 -3.55,-2 -7.3,-5.43 -11.25,-10.321 -3.98,-4.921 -5.94,-9.289 -5.94,-13.121 0,-3.871 1.1,-6.949 3.28,-9.218 2.19,-2.301 5.32,-3.981 9.38,-5 4.06,-0.942 8.01,-1.641 11.87,-2.032 3.83,-0.429 8.36,-0.629 13.6,-0.629 1.33,0 2.26,0 2.81,0 33.95,-0.539 57.73,-4.019 71.41,-10.46 13.63,-6.372 20.47,-15.9809 20.47,-28.9106 0,-21.0196 -8.91,-39.0977 -26.72,-54.2188 -17.74,-15.19138 -40.55,-22.96872 -68.44,-23.281225 -19.38,-0.308594 -36.84,3.402345 -52.34,11.089825 -15.43,7.6211 -23.13,19.0703 -23.13,34.3789 0,16.9922 13.36,31.5235 40.16,43.5938 -7.31,1.0586 -14.14,4.4179 -20.47,10.1561 -6.25,5.82 -9.38,12.813 -9.38,20.942 0,7.179 3.05,14.57 9.22,22.179 6.13,7.699 13.01,13.992 20.63,18.91 -8.13,3.012 -15.71,9.45 -22.66,19.371 -6.99,10 -10.47,20.79 -10.47,32.348 0,16.012 6.76,29.57 20.31,40.621 13.52,11.141 30.16,16.723 49.85,16.723 z" /><path
         id="path42"
         style="fill:#2c3e51;fill-opacity:1;fill-rule:nonzero;stroke:none"
         d="m 2191.45,273.199 c 16.13,0 26.79,-3.98 32.03,-11.871 0,-9.609 -1.53,-16.558 -4.53,-20.937 -3.05,-4.371 -6.72,-6.563 -11.1,-6.563 -4.92,0 -9.45,2.262 -13.59,6.871 -4.06,4.692 -9.65,7.031 -16.72,7.031 -8.44,0 -15.86,-3.98 -22.19,-11.871 -6.25,-7.929 -9.37,-16.25 -9.37,-25 v -61.558 c 0,-15.86 1.09,-27.973 3.28,-36.41 0.51,-1.993 4.1,-3.871 10.78,-5.621 6.76,-1.801 11.48,-2.661 14.22,-2.661 0.82,0 1.33,-1.679 1.56,-4.9996 0.31,-3.2383 0.2,-5.5508 -0.31,-6.8789 -27.42,1.3281 -42.19,2.039 -44.38,2.039 -1.56,0 -16.48,-0.7109 -44.68,-2.039 -1.06,1.1797 -1.57,3.3593 -1.57,6.7187 0,3.4418 0.51,5.1598 1.57,5.1598 3.32,0 8.16,0.86 14.53,2.661 6.44,1.75 9.92,3.628 10.47,5.621 1.95,7.89 2.96,17.5 2.96,28.75 v 77.5 c 0,10.629 -1.95,17.968 -5.78,22.031 -2.73,3.316 -6.05,5.629 -10,6.879 -3.98,1.25 -7.26,1.871 -9.84,1.871 -2.62,0 -3.91,0.238 -3.91,0.777 0,6.571 0.78,9.922 2.35,10.16 29.06,4.371 47.97,7.969 56.72,10.782 0.19,0 0.54,0.039 1.09,0.16 0.62,0.078 0.94,0.148 0.94,0.148 1.01,0 1.72,-1.168 2.03,-3.429 0.31,-2.309 0.31,-4.032 0,-5.161 l -2.5,-20.468 c 4.88,7.379 11.64,14.257 20.31,20.629 8.63,6.441 17.19,9.679 25.63,9.679 z" /><path
         id="path44"
         style="fill:#2c3e51;fill-opacity:1;fill-rule:nonzero;stroke:none"
         d="m 2284.49,120.391 c 4.69,-3.981 10.71,-5.942 18.13,-5.942 7.38,0 14.45,2.231 21.25,6.723 6.87,4.566 10.31,9.219 10.31,13.906 v 42.192 c -2.19,-1.18 -7.58,-3.09 -16.09,-5.79 -8.44,-2.73 -15.08,-5.109 -19.85,-7.179 -4.69,-2 -9.33,-5.391 -13.9,-10.16 -4.5,-4.801 -6.72,-10.391 -6.72,-16.719 0,-7.422 2.26,-13.082 6.87,-17.031 z m 38.6,152.5 c 15.07,0 25.93,-3.672 32.5,-10.942 6.56,-7.301 9.84,-18.98 9.84,-35 v -94.84 c 0,-5.738 1.45,-10.55 4.37,-14.379 3.01,-3.75 7.11,-5.621 12.35,-5.621 3.83,0 8.63,1.871 14.37,5.621 1.14,0 1.72,-1.089 1.72,-3.281 0,-3.551 -0.7,-6.398 -2.03,-8.59 -11.25,-9.609 -20.86,-14.3785 -28.75,-14.3785 -6.37,0 -12.42,2.5781 -18.12,7.8203 -5.75,5.1872 -9.69,10.6602 -11.88,16.3982 -0.23,0 -1.25,-0.898 -3.12,-2.648 -1.8,-1.801 -4.18,-3.871 -7.19,-6.25 -2.93,-2.313 -6.37,-4.692 -10.31,-7.1916 -3.99,-2.418 -8.68,-4.3789 -14.07,-5.9375 -5.31,-1.6406 -10.7,-2.5 -16.09,-2.5 -12.62,0 -23.05,3.3164 -31.25,10.0001 -8.24,6.637 -12.34,16.719 -12.34,30.156 0,6.012 1.48,11.723 4.53,17.031 3,5.313 6.56,9.692 10.62,13.121 4.14,3.442 9.77,6.918 16.88,10.469 7.07,3.52 13.16,6.172 18.28,7.973 5.08,1.758 11.72,3.988 19.84,6.719 8.21,2.808 13.99,4.879 17.35,6.25 2.38,0.82 3.59,2.847 3.59,6.089 v 30.79 c 0,8.75 -2.77,15.5 -8.28,20.308 -5.43,4.762 -11.95,7.192 -19.53,7.192 -8.25,0 -15.12,-2.821 -20.63,-8.442 -5.43,-5.629 -8.12,-12.93 -8.12,-21.879 0,-9.609 -5.63,-14.371 -16.88,-14.371 -7.62,0 -12.93,2.582 -15.94,7.813 0,11.64 8.6,23.32 25.79,35 17.26,11.64 34.76,17.5 52.5,17.5 z" /><path
         id="path46"
         style="fill:#2c3e51;fill-opacity:1;fill-rule:nonzero;stroke:none"
         d="m 2433.87,247.422 h -23.75 c -1.37,0 -2.03,2.848 -2.03,8.598 0,1.64 0.07,2.57 0.31,2.808 7.89,3.512 16.56,10.781 25.94,21.723 3,3.629 5.93,7.687 8.75,12.179 2.89,4.461 5.31,8.321 7.18,11.571 1.88,3.32 2.82,5.148 2.82,5.469 8.2,0 12.34,-0.711 12.34,-2.04 v -40.621 c 7.07,0 17.85,-0.121 32.34,-0.308 14.57,-0.121 22.27,-0.16 23.13,-0.16 2.19,0 3.28,-1.211 3.28,-3.59 0,-5 -1.41,-10.242 -4.22,-15.629 h -54.53 V 146.949 c 0,-10.929 2.81,-19.679 8.44,-26.25 5.62,-6.558 12.89,-9.84 21.87,-9.84 8.21,0 16.72,2.582 25.47,7.813 0.82,0.508 2.07,-0.703 3.75,-3.594 1.64,-2.808 2.34,-4.379 2.03,-4.687 -4.06,-4.371 -10.39,-8.711 -18.9,-12.9691 -8.44,-4.1406 -17.19,-6.25 -26.25,-6.25 -13.68,0 -25.08,4.4492 -34.22,13.4371 -9.18,9.063 -13.75,21.911 -13.75,38.59 z" /><path
         id="path48"
         style="fill:#2c3e51;fill-opacity:1;fill-rule:nonzero;stroke:none"
         d="m 2570.62,322.578 c -3.98,4.063 -5.93,8.942 -5.93,14.692 0,5.699 1.95,10.539 5.93,14.531 3.95,3.937 8.79,5.929 14.54,5.929 5.82,0 10.7,-1.992 14.68,-5.929 3.95,-3.992 5.94,-8.832 5.94,-14.531 0,-5.75 -1.99,-10.629 -5.94,-14.692 -3.98,-3.988 -8.86,-5.937 -14.68,-5.937 -5.75,0 -10.59,1.949 -14.54,5.937 z m 33.44,-173.277 c 0,-15.86 1.1,-27.973 3.28,-36.41 0.51,-1.993 4.07,-3.871 10.63,-5.621 6.56,-1.801 11.25,-2.661 14.06,-2.661 0.82,0 1.33,-1.679 1.56,-4.9996 0.32,-3.2383 0.2,-5.5508 -0.31,-6.8789 -27.42,1.3281 -42.11,2.039 -44.06,2.039 -1.88,0 -16.72,-0.7109 -44.53,-2.039 -1.17,1.1797 -1.72,3.3593 -1.72,6.7187 0,3.4418 0.55,5.1598 1.72,5.1598 3.2,0 8.01,0.86 14.37,2.661 6.45,1.75 10,3.628 10.63,5.621 1.87,7.89 2.81,17.5 2.81,28.75 v 77.5 c 0,10.629 -1.95,17.968 -5.78,22.031 -2.74,3.316 -6.06,5.629 -10,6.879 -3.99,1.25 -7.27,1.871 -9.84,1.871 -2.62,0 -3.91,0.238 -3.91,0.777 0,6.571 0.82,9.922 2.5,10.16 28.94,4.371 47.81,7.969 56.56,10.782 l 0.78,0.308 c 0.63,0 1.02,0 1.25,0 1.14,0 1.8,-1.168 2.03,-3.429 0.32,-2.309 0.32,-4.032 0,-5.161 -1.36,-10.937 -2.03,-20.781 -2.03,-29.531 z" /><path
         id="path50"
         style="fill:#2c3e51;fill-opacity:1;fill-rule:nonzero;stroke:none"
         d="m 2740.27,257.27 c -14.49,0 -26.32,-6.68 -35.47,-20 -9.18,-13.25 -13.75,-29.461 -13.75,-48.598 0,-22.422 5.79,-41.641 17.35,-57.652 11.64,-15.942 25.31,-23.911 40.94,-23.911 14.45,0 26.32,6.801 35.62,20.469 9.26,13.75 13.91,30.152 13.91,49.223 0,22.179 -5.9,41.129 -17.66,56.871 -11.68,15.707 -25.31,23.598 -40.94,23.598 z m 4.53,15.929 c 24.58,0 45.63,-8.898 63.13,-26.719 17.5,-17.73 26.25,-39.019 26.25,-63.902 0,-25.117 -8.56,-46.637 -25.63,-64.527 -17.1,-17.93 -38.08,-26.8791 -62.96,-26.8791 -24.93,0 -46.1,8.9491 -63.6,26.8791 -17.5,17.89 -26.25,39.41 -26.25,64.527 0,25.391 8.48,46.871 25.47,64.371 16.95,17.5 38.17,26.25 63.59,26.25 z" /><path
         id="path52"
         style="fill:#2c3e51;fill-opacity:1;fill-rule:nonzero;stroke:none"
         d="m 2981.8,273.672 c 19.14,0 32.54,-6.871 40.15,-20.621 7.7,-13.672 11.57,-35.781 11.57,-66.41 v -37.34 c 0,-15.86 1.09,-27.973 3.28,-36.41 0.5,-1.993 4.06,-3.871 10.62,-5.621 6.56,-1.801 11.25,-2.661 14.06,-2.661 0.71,0 1.25,-1.679 1.57,-4.9996 0.31,-3.2383 0.15,-5.5508 -0.47,-6.8789 -27.31,1.3281 -41.88,2.039 -43.75,2.039 -0.63,0 -15,-0.7109 -43.13,-2.039 -1.17,1.1797 -1.72,3.3593 -1.72,6.7187 0,3.4418 0.55,5.1598 1.72,5.1598 3.21,0 7.74,0.86 13.6,2.661 5.93,1.75 9.22,3.628 9.84,5.621 1.88,7.89 2.81,17.5 2.81,28.75 v 40.937 c 0,25.391 -3.28,42.731 -9.84,52.031 -6.56,9.371 -17.27,14.063 -32.03,14.063 -8.75,0 -17.19,-3.242 -25.31,-9.692 -8.05,-6.48 -12.04,-12.3 -12.04,-17.5 v -72.179 c 0,-15.86 1.1,-27.973 3.29,-36.41 0.62,-1.993 4.21,-3.871 10.78,-5.621 6.56,-1.801 11.17,-2.661 13.9,-2.661 0.82,0 1.33,-1.679 1.57,-4.9996 0.31,-3.2383 0.19,-5.5508 -0.32,-6.8789 -27.42,1.3281 -42.03,2.039 -43.9,2.039 -1.68,0 -16.57,-0.7109 -44.69,-2.039 -1.17,1.1797 -1.72,3.3593 -1.72,6.7187 0,3.4418 0.55,5.1598 1.72,5.1598 3.2,0 8.05,0.86 14.53,2.661 6.45,1.75 9.92,3.628 10.47,5.621 1.87,7.89 2.81,17.5 2.81,28.75 v 77.5 c 0,10.629 -1.95,17.968 -5.78,22.031 -2.73,3.316 -6.05,5.629 -10,6.879 -3.98,1.25 -7.27,1.871 -9.84,1.871 -2.62,0 -3.91,0.238 -3.91,0.777 0,6.571 0.82,9.922 2.5,10.16 28.95,4.371 47.81,7.969 56.56,10.782 0.32,0 0.71,0.039 1.25,0.16 0.51,0.078 0.78,0.148 0.78,0.148 1.14,0 1.8,-1.168 2.04,-3.429 0.31,-2.309 0.31,-4.032 0,-5.161 -1.06,-7.621 -1.57,-13.089 -1.57,-16.41 0,-1.051 0.24,-1.558 0.78,-1.558 0.32,0 0.71,0.23 1.25,0.781 6.25,6.558 14.77,12.738 25.63,18.598 10.82,5.929 21.13,8.902 30.94,8.902 z" /><path
         id="path54"
         style="fill:#2c3e51;fill-opacity:1;fill-rule:nonzero;stroke:none"
         d="m 3233.32,363.051 c 5.39,0 10.7,0.07 15.94,0.308 5.19,0.313 10.78,0.661 16.72,1.09 6.01,0.391 10.97,0.781 14.84,1.102 0.51,-1.68 0.78,-3.75 0.78,-6.25 0,-3.75 -0.55,-5.629 -1.56,-5.629 -2.74,0 -7.66,-1.012 -14.84,-2.973 -7.11,-1.871 -10.9,-3.75 -11.41,-5.621 -2.5,-9.609 -3.75,-22.348 -3.75,-38.277 V 152.27 c 0,-14.5 1.25,-26.532 3.75,-36.098 0.82,-2.731 10.08,-4.063 27.81,-4.063 h 19.69 c 25.51,0 42.73,2.27 51.72,6.871 4.14,2.192 8.75,7.04 13.75,14.54 5.08,7.57 9.14,16.558 12.19,26.871 0.5,1.64 2.38,2.5 5.62,2.5 5.2,0 8.63,-0.86 10.31,-2.5 -1.36,-3.551 -3.51,-9.219 -6.4,-17.032 -2.82,-7.738 -5.08,-13.98 -6.72,-18.75 -1.68,-4.808 -3.52,-10.39 -5.47,-16.718 -1.88,-6.25 -3.09,-11.4808 -3.59,-15.6215 -14.18,0 -36.37,0.4297 -66.57,1.25 -30.23,0.8203 -54.65,1.25 -73.28,1.25 l -49.69,-1.25 c -0.74,0.8203 -1.09,3 -1.09,6.5585 0,3.633 0.35,5.473 1.09,5.473 3.83,0 9.14,0.777 15.94,2.34 6.88,1.64 11.02,3.75 12.5,6.25 1.88,3.199 2.81,16.019 2.81,38.437 V 307.73 c 0,17.5 -0.93,29.93 -2.81,37.348 -0.86,2.192 -4.76,4.141 -11.72,5.942 -6.99,1.75 -12.26,2.652 -15.78,2.652 -1.17,0 -1.72,1.758 -1.72,5.308 0,3.211 0.55,5.399 1.72,6.571 3.52,-0.321 10.78,-0.86 21.72,-1.571 10.94,-0.621 20.08,-0.929 27.5,-0.929 z" /><path
         id="path56"
         style="fill:#2c3e51;fill-opacity:1;fill-rule:nonzero;stroke:none"
         d="m 3457.54,120.391 c 4.69,-3.981 10.7,-5.942 18.12,-5.942 7.39,0 14.46,2.231 21.25,6.723 6.88,4.566 10.32,9.219 10.32,13.906 v 42.192 c -2.19,-1.18 -7.58,-3.09 -16.1,-5.79 -8.43,-2.73 -15.08,-5.109 -19.84,-7.179 -4.69,-2 -9.34,-5.391 -13.91,-10.16 -4.49,-4.801 -6.72,-10.391 -6.72,-16.719 0,-7.422 2.27,-13.082 6.88,-17.031 z m 38.59,152.5 c 15.08,0 25.94,-3.672 32.5,-10.942 6.57,-7.301 9.85,-18.98 9.85,-35 v -94.84 c 0,-5.738 1.44,-10.55 4.37,-14.379 3.01,-3.75 7.11,-5.621 12.35,-5.621 3.82,0 8.63,1.871 14.37,5.621 1.13,0 1.72,-1.089 1.72,-3.281 0,-3.551 -0.7,-6.398 -2.03,-8.59 -11.25,-9.609 -20.86,-14.3785 -28.75,-14.3785 -6.37,0 -12.42,2.5781 -18.13,7.8203 -5.74,5.1872 -9.68,10.6602 -11.87,16.3982 -0.24,0 -1.25,-0.898 -3.13,-2.648 -1.79,-1.801 -4.18,-3.871 -7.18,-6.25 -2.93,-2.313 -6.37,-4.692 -10.32,-7.1916 -3.98,-2.418 -8.67,-4.3789 -14.06,-5.9375 -5.31,-1.6406 -10.7,-2.5 -16.09,-2.5 -12.62,0 -23.05,3.3164 -31.25,10.0001 -8.25,6.637 -12.35,16.719 -12.35,30.156 0,6.012 1.49,11.723 4.53,17.031 3.01,5.313 6.57,9.692 10.63,13.121 4.14,3.442 9.76,6.918 16.87,10.469 7.07,3.52 13.17,6.172 18.29,7.973 5.07,1.758 11.71,3.988 19.84,6.719 8.2,2.808 13.98,4.879 17.34,6.25 2.39,0.82 3.6,2.847 3.6,6.089 v 30.79 c 0,8.75 -2.78,15.5 -8.28,20.308 -5.43,4.762 -11.96,7.192 -19.54,7.192 -8.24,0 -15.11,-2.821 -20.62,-8.442 -5.43,-5.629 -8.13,-12.93 -8.13,-21.879 0,-9.609 -5.62,-14.371 -16.87,-14.371 -7.62,0 -12.93,2.582 -15.94,7.813 0,11.64 8.6,23.32 25.78,35 17.27,11.64 34.77,17.5 52.5,17.5 z" /><path
         id="path58"
         style="fill:#2c3e51;fill-opacity:1;fill-rule:nonzero;stroke:none"
         d="m 3829.57,245.699 c 0,9.571 -9.02,14.379 -27.03,14.379 h -1.56 c -1.18,0 -1.72,1.723 -1.72,5.152 0,3.442 0.54,5.668 1.72,6.719 4.06,-0.23 8.59,-0.469 13.59,-0.777 5.08,-0.313 9.77,-0.621 14.06,-0.942 4.26,-0.23 8.83,-0.308 13.75,-0.308 4.57,0 8.6,0.078 12.03,0.308 3.44,0.321 7.35,0.629 11.72,0.942 4.38,0.308 8.6,0.547 12.66,0.777 0.62,-1.558 0.94,-3.59 0.94,-6.09 0,-3.871 -0.71,-5.781 -2.03,-5.781 -3.68,0 -8.52,-1.168 -14.54,-3.437 -5.93,-2.301 -9.84,-6.051 -11.71,-11.25 L 3797.7,98.5195 c -2.19,-6.0195 -6.06,-9.0703 -11.57,-9.0703 -2.73,0 -4.33,0.5899 -4.84,1.7227 L 3730.82,211.641 3689.41,98.5195 c -0.31,-0.8593 -0.89,-1.8789 -1.71,-3.1289 -0.86,-1.25 -2.15,-2.539 -3.91,-3.9101 -1.8,-1.3203 -3.59,-2.0313 -5.47,-2.0313 -2.73,0 -4.37,0.5899 -5,1.7227 -6.56,14.6871 -14.02,32.3481 -22.34,52.9691 -8.36,20.699 -16.21,39.3 -23.6,55.781 -7.42,16.558 -16.01,33.598 -25.78,51.098 -3.55,6.011 -10.94,9.058 -22.19,9.058 -1.05,0 -1.56,1.762 -1.56,5.313 0,3.32 0.51,5.507 1.56,6.558 4.14,-0.23 8.68,-0.469 13.6,-0.777 4.88,-0.313 9.37,-0.621 13.44,-0.942 4.14,-0.23 8.67,-0.308 13.59,-0.308 l 41.09,2.027 c 0.51,-1.051 0.67,-3.277 0.47,-6.719 -0.12,-3.429 -0.58,-5.152 -1.4,-5.152 -13.68,0 -20.47,-3.129 -20.47,-9.379 0,-0.859 1.72,-4.961 5.15,-12.34 3.44,-7.418 9.38,-20.238 17.82,-38.437 8.43,-18.121 17.03,-37.031 25.78,-56.723 4.68,13.442 9.88,28.172 15.62,44.223 5.7,16.129 9.73,27.656 12.03,34.527 2.39,6.879 3.6,10.821 3.6,11.879 0,1.332 -0.63,3.512 -1.88,6.563 -1.25,3.007 -2.58,5.629 -3.9,7.808 l -2.04,3.75 c -1.68,2.391 -4.29,4.422 -7.81,6.102 -2.73,1.328 -7.11,2.027 -13.12,2.027 -1.06,0 -1.57,1.723 -1.57,5.152 0,3.442 0.51,5.668 1.57,6.719 4.14,-0.23 8.59,-0.469 13.28,-0.777 4.76,-0.313 9.14,-0.621 13.12,-0.942 4.07,-0.23 8.52,-0.308 13.44,-0.308 4.57,0 8.83,0.078 12.81,0.308 4.07,0.321 8.64,0.629 13.75,0.942 5.2,0.308 9.73,0.547 13.6,0.777 0.5,-1.558 0.78,-3.859 0.78,-6.871 0,-3.047 -0.43,-4.687 -1.25,-5 -13.13,0 -19.69,-5.308 -19.69,-15.937 0,-5.743 15.04,-39.371 45.16,-100.942 4.14,12.582 9.37,27.742 15.62,45.473 6.25,17.808 10.78,30.976 13.6,39.527 2.89,8.641 4.37,14.461 4.37,17.5 z" /></g></g></svg>